<svg xmlns="http://www.w3.org/2000/svg" xmlns:xlink="http://www.w3.org/1999/xlink" width="1152" zoomAndPan="magnify" viewBox="0 0 864 675.000002" height="900" preserveAspectRatio="xMidYMid meet" version="1.0"><defs><clipPath id="61b73b06b0"><path d="M 0.640625 145 L 376 145 L 376 446 L 0.640625 446 Z M 0.640625 145 " clip-rule="nonzero"/></clipPath><clipPath id="ed465f2935"><path d="M 0.640625 145 L 376 145 L 376 196 L 0.640625 196 Z M 0.640625 145 " clip-rule="nonzero"/></clipPath><clipPath id="a84aa14bd3"><path d="M 432 520 L 602 520 L 602 674 L 432 674 Z M 432 520 " clip-rule="nonzero"/></clipPath><clipPath id="a8df4e525c"><path d="M 685 527 L 862.613281 527 L 862.613281 673 L 685 673 Z M 685 527 " clip-rule="nonzero"/></clipPath></defs><path fill="#dee8ff" d="M 790.019531 124.292969 L 790.019531 537.433594 C 790.019531 549.660156 780.113281 559.570312 767.890625 559.570312 L 110.695312 559.570312 C 98.476562 559.570312 88.566406 549.660156 88.566406 537.433594 L 88.566406 124.292969 C 88.566406 112.066406 98.476562 102.15625 110.695312 102.15625 L 767.890625 102.15625 C 780.113281 102.15625 790.019531 112.066406 790.019531 124.292969 Z M 790.019531 124.292969 " fill-opacity="0.8" fill-rule="nonzero"/><path fill="#3d3936" d="M 779.292969 588.003906 L 99.292969 588.003906 C 79.683594 588.003906 63.730469 572.046875 63.730469 552.433594 L 63.730469 109.292969 C 63.730469 89.679688 79.683594 73.71875 99.292969 73.71875 L 779.292969 73.71875 C 798.902344 73.71875 814.855469 89.679688 814.855469 109.292969 L 814.855469 552.433594 C 814.855469 572.046875 798.902344 588.003906 779.292969 588.003906 Z M 99.292969 75.402344 C 80.609375 75.402344 65.410156 90.605469 65.410156 109.292969 L 65.410156 552.433594 C 65.410156 571.121094 80.609375 586.324219 99.292969 586.324219 L 779.292969 586.324219 C 797.976562 586.324219 813.175781 571.121094 813.175781 552.433594 L 813.175781 109.292969 C 813.175781 90.605469 797.976562 75.402344 779.292969 75.402344 Z M 99.292969 75.402344 " fill-opacity="1" fill-rule="nonzero"/><path fill="#3d3936" d="M 596.597656 638.957031 L 590.273438 673.585938 L 436.445312 673.585938 L 436.445312 623.84375 Z M 596.597656 638.957031 " fill-opacity="1" fill-rule="nonzero"/><path fill="#ffffff" d="M 374.679688 180.871094 L 374.679688 410.285156 C 374.679688 429.238281 359.320312 444.601562 340.375 444.601562 L 36.136719 444.601562 C 17.191406 444.601562 1.832031 429.238281 1.832031 410.285156 L 1.832031 180.871094 C 1.832031 161.917969 17.191406 146.550781 36.136719 146.550781 L 340.375 146.550781 C 359.320312 146.550781 374.679688 161.917969 374.679688 180.871094 Z M 374.679688 180.871094 " fill-opacity="1" fill-rule="nonzero"/><g clip-path="url(#61b73b06b0)"><path fill="#3d3936" d="M 340.371094 445.441406 L 36.136719 445.441406 C 16.757812 445.441406 0.992188 429.671875 0.992188 410.285156 L 0.992188 180.871094 C 0.992188 161.484375 16.757812 145.710938 36.136719 145.710938 L 340.371094 145.710938 C 359.753906 145.710938 375.519531 161.484375 375.519531 180.871094 L 375.519531 410.285156 C 375.519531 429.671875 359.753906 445.441406 340.371094 445.441406 Z M 36.136719 147.390625 C 17.683594 147.390625 2.671875 162.410156 2.671875 180.871094 L 2.671875 410.285156 C 2.671875 428.742188 17.683594 443.761719 36.136719 443.761719 L 340.371094 443.761719 C 358.828125 443.761719 373.839844 428.742188 373.839844 410.285156 L 373.839844 180.871094 C 373.839844 162.410156 358.828125 147.390625 340.371094 147.390625 Z M 36.136719 147.390625 " fill-opacity="1" fill-rule="nonzero"/></g><path fill="#a3a3f5" d="M 374.679688 194.394531 L 374.679688 180.871094 C 374.679688 161.917969 359.320312 146.550781 340.371094 146.550781 L 36.136719 146.550781 C 17.191406 146.550781 1.832031 161.917969 1.832031 180.871094 L 1.832031 194.394531 Z M 374.679688 194.394531 " fill-opacity="1" fill-rule="nonzero"/><g clip-path="url(#ed465f2935)"><path fill="#3d3936" d="M 374.679688 195.234375 L 1.832031 195.234375 C 1.367188 195.234375 0.992188 194.859375 0.992188 194.394531 L 0.992188 180.871094 C 0.992188 161.484375 16.757812 145.710938 36.136719 145.710938 L 340.371094 145.710938 C 359.753906 145.710938 375.519531 161.484375 375.519531 180.871094 L 375.519531 194.394531 C 375.519531 194.859375 375.144531 195.234375 374.679688 195.234375 Z M 2.671875 193.554688 L 373.839844 193.554688 L 373.839844 180.871094 C 373.839844 162.410156 358.828125 147.390625 340.371094 147.390625 L 36.136719 147.390625 C 17.683594 147.390625 2.671875 162.410156 2.671875 180.871094 Z M 2.671875 193.554688 " fill-opacity="1" fill-rule="nonzero"/></g><path fill="#f9b9ae" d="M 423.359375 231.96875 L 319.546875 310.6875 L 236.011719 271.4375 L 236.011719 355.117188 L 288.425781 376.992188 C 307.0625 384.769531 328.5 381.234375 343.652344 367.882812 L 455.160156 264.644531 Z M 423.359375 231.96875 " fill-opacity="1" fill-rule="nonzero"/><path fill="#f9b9ae" d="M 423.359375 231.96875 L 410.21875 247.003906 L 454.734375 264.722656 C 467.746094 252.988281 493.609375 229.453125 493.609375 229.453125 C 496.066406 227.292969 496.265625 223.441406 493.902344 221.035156 C 491.824219 218.933594 488.496094 218.730469 486.179688 220.566406 L 484.523438 221.898438 L 491.777344 215.515625 C 494.308594 213.289062 494.421875 209.46875 492.09375 207.097656 C 489.992188 204.996094 486.664062 204.789062 484.371094 206.628906 L 483.398438 207.414062 C 485.855469 204.890625 488.707031 203.8125 489.03125 200.351562 C 489.1875 198.703125 488.648438 197.011719 487.390625 195.730469 C 485.316406 193.609375 481.988281 193.425781 479.667969 195.261719 L 474.203125 199.605469 C 476.714844 197.441406 476.835938 193.660156 474.570312 191.367188 C 472.46875 189.261719 469.113281 189.144531 466.871094 191.097656 L 443.210938 212.226562 L 446.632812 200.691406 C 448.277344 195.476562 446.539062 190.136719 442.714844 186.816406 C 440.675781 185.027344 437.464844 185.683594 436.269531 188.132812 L 426.992188 205.851562 C 426.042969 207.753906 425.457031 209.820312 425.253906 211.949219 Z M 423.359375 231.96875 " fill-opacity="1" fill-rule="nonzero"/><path fill="#3d3936" d="M 466.535156 207.140625 C 466.210938 206.8125 466.214844 206.277344 466.546875 205.953125 L 473.617188 199.007812 C 473.945312 198.679688 474.480469 198.683594 474.804688 199.015625 C 475.128906 199.347656 475.125 199.878906 474.792969 200.203125 L 467.722656 207.152344 C 467.390625 207.476562 466.859375 207.472656 466.535156 207.140625 Z M 466.535156 207.140625 " fill-opacity="1" fill-rule="nonzero"/><path fill="#3d3936" d="M 478.515625 212.601562 C 478.1875 212.273438 478.195312 211.742188 478.523438 211.414062 L 483.886719 206.144531 C 484.214844 205.820312 484.746094 205.824219 485.074219 206.15625 C 485.398438 206.488281 485.394531 207.019531 485.0625 207.34375 L 479.703125 212.613281 C 479.371094 212.9375 478.839844 212.933594 478.515625 212.601562 Z M 478.515625 212.601562 " fill-opacity="1" fill-rule="nonzero"/><path fill="#3d3936" d="M 479.46875 226.976562 C 479.140625 226.648438 479.140625 226.117188 479.464844 225.789062 L 483.925781 221.304688 C 484.253906 220.976562 484.785156 220.976562 485.113281 221.300781 C 485.441406 221.628906 485.445312 222.160156 485.117188 222.492188 L 480.65625 226.972656 C 480.328125 227.304688 479.796875 227.300781 479.46875 226.976562 Z M 479.46875 226.976562 " fill-opacity="1" fill-rule="nonzero"/><path fill="#3d3936" d="M 440.777344 232.011719 C 440.589844 232.011719 440.402344 231.949219 440.242188 231.820312 C 439.886719 231.523438 439.835938 230.996094 440.128906 230.636719 C 447.414062 221.78125 442.527344 212.722656 442.476562 212.632812 C 442.25 212.226562 442.398438 211.714844 442.804688 211.492188 C 443.207031 211.265625 443.722656 211.410156 443.945312 211.816406 C 444 211.917969 449.429688 221.976562 441.425781 231.703125 C 441.261719 231.90625 441.019531 232.011719 440.777344 232.011719 Z M 440.777344 232.011719 " fill-opacity="1" fill-rule="nonzero"/><path fill="#3d3936" d="M 462.269531 378.277344 C 462.269531 389.609375 453.085938 398.796875 441.734375 398.796875 C 430.40625 398.796875 421.203125 389.609375 421.203125 378.277344 C 421.203125 366.925781 430.40625 357.734375 441.734375 357.734375 C 453.085938 357.734375 462.269531 366.925781 462.269531 378.277344 Z M 462.269531 378.277344 " fill-opacity="1" fill-rule="nonzero"/><path fill="#f9856e" d="M 423.734375 641.964844 L 607.636719 641.964844 L 554.285156 438.414062 L 429.492188 449.300781 C 418.625 450.46875 408.476562 454.992188 400.371094 462.117188 L 400.371094 573.945312 L 419.488281 551.164062 Z M 423.734375 641.964844 " fill-opacity="1" fill-rule="nonzero"/><path fill="#ed6954" d="M 532.242188 544.886719 L 542.21875 601.246094 L 559.152344 546.75 Z M 532.242188 544.886719 " fill-opacity="1" fill-rule="nonzero"/><g clip-path="url(#a84aa14bd3)"><path fill="#f9b9ae" d="M 544.339844 520.699219 L 538.347656 604.949219 L 432.5625 638.871094 L 440.074219 674.089844 L 565.023438 646.921875 C 579.441406 643.789062 590.195312 631.707031 591.640625 617.011719 L 601.113281 520.699219 Z M 544.339844 520.699219 " fill-opacity="1" fill-rule="nonzero"/></g><path fill="#3d3936" d="M 598.46875 547.574219 L 601.113281 520.699219 L 544.339844 520.699219 L 541.707031 557.71875 Z M 598.46875 547.574219 " fill-opacity="1" fill-rule="nonzero"/><path fill="#f9b9ae" d="M 368.613281 504.757812 L 362.617188 589.007812 L 256.835938 622.925781 L 264.347656 658.148438 L 389.292969 630.980469 C 403.714844 627.84375 414.464844 615.761719 415.910156 601.070312 L 425.382812 504.757812 Z M 368.613281 504.757812 " fill-opacity="1" fill-rule="nonzero"/><path fill="#3d3936" d="M 421.550781 543.707031 L 425.382812 504.757812 L 368.609375 504.757812 L 368.628906 518.894531 Z M 421.550781 543.707031 " fill-opacity="1" fill-rule="nonzero"/><path fill="#f9856e" d="M 552.980469 438.5 C 580.644531 436.328125 604.292969 458.203125 604.292969 485.960938 L 604.292969 549.871094 L 532.242188 544.886719 L 530.699219 477.796875 " fill-opacity="1" fill-rule="nonzero"/><path fill="#3d3936" d="M 604.234375 550.710938 L 532.183594 545.726562 C 531.75 545.695312 531.410156 545.339844 531.402344 544.90625 L 529.859375 477.816406 C 529.847656 477.351562 530.214844 476.96875 530.679688 476.957031 C 531.117188 476.929688 531.527344 477.3125 531.539062 477.777344 L 533.0625 544.101562 L 604.351562 549.035156 C 604.8125 549.066406 605.160156 549.464844 605.128906 549.929688 C 605.097656 550.378906 604.710938 550.738281 604.234375 550.710938 Z M 604.234375 550.710938 " fill-opacity="1" fill-rule="nonzero"/><path fill="#f9856e" d="M 365.636719 503.550781 L 426.761719 542.46875 L 448.605469 468.226562 L 400.371094 462.117188 Z M 365.636719 503.550781 " fill-opacity="1" fill-rule="nonzero"/><path fill="#3d3936" d="M 426.3125 543.175781 L 365.183594 504.257812 C 364.792969 504.011719 364.679688 503.492188 364.925781 503.097656 C 365.175781 502.707031 365.695312 502.59375 366.085938 502.839844 L 426.273438 541.160156 L 441.203125 490.410156 C 441.335938 489.964844 441.800781 489.707031 442.246094 489.839844 C 442.691406 489.972656 442.945312 490.4375 442.816406 490.882812 L 427.570312 542.707031 C 427.414062 543.242188 426.78125 543.476562 426.3125 543.175781 Z M 426.3125 543.175781 " fill-opacity="1" fill-rule="nonzero"/><g clip-path="url(#a8df4e525c)"><path fill="#a473e5" d="M 845.273438 529.140625 L 862.257812 672.257812 L 771.222656 672.257812 L 765.457031 595.238281 L 757.464844 672.257812 L 685.039062 672.257812 L 699.660156 527.359375 Z M 845.273438 529.140625 " fill-opacity="1" fill-rule="nonzero"/></g><path fill="#3d3936" d="M 847.597656 548.714844 L 845.273438 529.140625 L 699.660156 527.359375 L 695.59375 567.667969 Z M 847.597656 548.714844 " fill-opacity="1" fill-rule="nonzero"/><path fill="#f66b78" d="M 857.523438 529.136719 L 760.269531 555.492188 L 685.800781 575.675781 L 670.375 491.132812 L 664.460938 513.671875 L 589.726562 487.082031 L 625.296875 407.277344 C 630.203125 396.320312 639.207031 387.714844 650.398438 383.359375 L 731.082031 351.914062 C 753.902344 343.019531 779.691406 353.644531 789.625 376.046875 L 839.996094 489.621094 Z M 857.523438 529.136719 " fill-opacity="1" fill-rule="nonzero"/><path fill="#d33d57" d="M 857.523438 529.136719 L 760.269531 555.492188 L 762.4375 457.71875 L 801.316406 435.027344 L 839.996094 489.621094 Z M 857.523438 529.136719 " fill-opacity="1" fill-rule="nonzero"/><path fill="#d33d57" d="M 660.207031 439.351562 L 664.457031 513.675781 L 670.28125 490.644531 Z M 660.207031 439.351562 " fill-opacity="1" fill-rule="nonzero"/><path fill="#f9b9ae" d="M 655.304688 510.414062 L 589.167969 672.257812 L 545.398438 672.257812 L 599.691406 490.644531 Z M 655.304688 510.414062 " fill-opacity="1" fill-rule="nonzero"/><path fill="#3d3936" d="M 552.199219 649.519531 C 551.753906 649.386719 551.5 648.917969 551.632812 648.472656 L 581.582031 548.296875 C 581.714844 547.851562 582.183594 547.597656 582.625 547.734375 C 583.070312 547.867188 583.324219 548.335938 583.191406 548.78125 L 553.242188 648.953125 C 553.109375 649.40625 552.632812 649.652344 552.199219 649.519531 Z M 552.199219 649.519531 " fill-opacity="1" fill-rule="nonzero"/><path fill="#3d3936" d="M 653.910156 513.824219 L 655.304688 510.414062 L 599.695312 490.644531 L 592.765625 513.824219 Z M 653.910156 513.824219 " fill-opacity="1" fill-rule="nonzero"/><path fill="#f9b9ae" d="M 784.785156 472.109375 L 714.265625 672.257812 L 670.496094 672.257812 L 729.175781 452.339844 Z M 784.785156 472.109375 " fill-opacity="1" fill-rule="nonzero"/><path fill="#3d3936" d="M 776.027344 496.96875 L 784.785156 472.109375 L 729.175781 452.339844 L 717.269531 496.96875 Z M 776.027344 496.96875 " fill-opacity="1" fill-rule="nonzero"/><path fill="#f66b78" d="M 802.0625 432.582031 L 783 494.871094 L 708.257812 468.277344 L 747.488281 375.183594 " fill-opacity="1" fill-rule="nonzero"/><path fill="#3d3936" d="M 782.71875 495.664062 L 707.976562 469.070312 C 707.523438 468.90625 707.296875 468.398438 707.484375 467.949219 L 746.714844 374.855469 C 746.894531 374.429688 747.386719 374.226562 747.816406 374.410156 C 748.242188 374.589844 748.441406 375.082031 748.261719 375.507812 L 709.378906 467.785156 L 782.453125 493.785156 L 801.257812 432.335938 C 801.394531 431.894531 801.859375 431.640625 802.304688 431.777344 C 802.75 431.914062 803 432.382812 802.863281 432.828125 L 783.800781 495.117188 C 783.660156 495.578125 783.164062 495.820312 782.71875 495.664062 Z M 782.71875 495.664062 " fill-opacity="1" fill-rule="nonzero"/><path fill="#f9b9ae" d="M 712.84375 358.992188 L 702.535156 393.957031 L 679.773438 371.976562 L 672.5625 344.394531 C 689.015625 344.394531 701.722656 335 704.1875 317.855469 Z M 712.84375 358.992188 " fill-opacity="1" fill-rule="nonzero"/><path fill="#3d3936" d="M 701.953125 394.558594 L 679.191406 372.582031 C 678.855469 372.261719 678.847656 371.726562 679.167969 371.394531 C 679.492188 371.058594 680.023438 371.050781 680.355469 371.371094 L 702.121094 392.386719 L 712.035156 358.753906 C 712.167969 358.308594 712.632812 358.050781 713.078125 358.183594 C 713.523438 358.316406 713.777344 358.785156 713.648438 359.230469 L 703.34375 394.191406 C 703.164062 394.800781 702.40625 394.996094 701.953125 394.558594 Z M 701.953125 394.558594 " fill-opacity="1" fill-rule="nonzero"/><path fill="#f9b9ae" d="M 703.996094 303.609375 C 712.121094 356.472656 642.542969 356.136719 635.882812 312.804688 C 632.761719 292.472656 646.707031 273.457031 667.019531 270.332031 C 687.34375 267.207031 700.871094 283.277344 703.996094 303.609375 Z M 703.996094 303.609375 " fill-opacity="1" fill-rule="nonzero"/><path fill="#3d3936" d="M 692.84375 282.046875 C 692.84375 282.046875 681.613281 303.980469 703.71875 301.976562 L 703.152344 322.585938 C 703.152344 322.585938 711.488281 320.601562 715.996094 313.144531 C 722.257812 302.789062 734.152344 261.335938 704.628906 262.265625 C 704.628906 262.265625 707.132812 225.960938 657.21875 239.71875 C 614.847656 251.394531 609.566406 295.007812 635.625 303.457031 C 635.625 303.457031 640.539062 286.589844 660.660156 276.851562 C 659.703125 280.496094 660.78125 285.144531 662.609375 290.160156 C 670.714844 282.742188 680.792969 280.042969 692.84375 282.046875 Z M 692.84375 282.046875 " fill-opacity="1" fill-rule="nonzero"/><path fill="#f9b9ae" d="M 710.414062 305.09375 C 710.414062 310.183594 706.292969 314.304688 701.214844 314.304688 C 696.125 314.304688 692.003906 310.183594 692.003906 305.09375 C 692.003906 300.011719 696.125 295.890625 701.214844 295.890625 C 706.292969 295.890625 710.414062 300.011719 710.414062 305.09375 Z M 710.414062 305.09375 " fill-opacity="1" fill-rule="nonzero"/><path fill="#3d3936" d="M 703.113281 314.949219 C 702.726562 314.949219 702.375 314.679688 702.292969 314.28125 C 702.199219 313.828125 702.488281 313.382812 702.941406 313.285156 C 706.785156 312.480469 709.574219 309.035156 709.574219 305.09375 C 709.574219 300.480469 705.824219 296.730469 701.214844 296.730469 C 698.257812 296.730469 695.488281 298.316406 693.988281 300.871094 C 693.753906 301.269531 693.238281 301.402344 692.839844 301.167969 C 692.441406 300.933594 692.304688 300.417969 692.542969 300.019531 C 694.339844 296.953125 697.664062 295.050781 701.214844 295.050781 C 706.75 295.050781 711.253906 299.554688 711.253906 305.09375 C 711.253906 309.824219 707.90625 313.960938 703.289062 314.929688 C 703.230469 314.945312 703.171875 314.949219 703.113281 314.949219 Z M 703.113281 314.949219 " fill-opacity="1" fill-rule="nonzero"/><path fill="#ffffff" d="M 639.347656 309.285156 C 639.347656 309.285156 642.421875 311.53125 645.886719 311.488281 C 650.753906 311.46875 653.585938 306.460938 653.753906 306.34375 C 653.585938 306.304688 648.902344 302.847656 644.722656 304.605469 C 641.394531 305.84375 639.347656 309.285156 639.347656 309.285156 Z M 639.347656 309.285156 " fill-opacity="1" fill-rule="nonzero"/><path fill="#3d3936" d="M 639.347656 309.285156 C 639.347656 309.285156 642.421875 311.53125 645.886719 311.488281 C 646.550781 309.113281 646.105469 306.578125 644.722656 304.605469 C 641.394531 305.84375 639.347656 309.285156 639.347656 309.285156 Z M 639.347656 309.285156 " fill-opacity="1" fill-rule="nonzero"/><path fill="#ffffff" d="M 662.785156 306.878906 C 662.785156 306.878906 666.484375 309.578125 670.65625 309.523438 C 676.476562 309.5 679.953125 303.449219 680.121094 303.332031 C 679.953125 303.296875 674.378906 299.085938 669.253906 301.242188 C 665.25 302.734375 662.785156 306.878906 662.785156 306.878906 Z M 662.785156 306.878906 " fill-opacity="1" fill-rule="nonzero"/><path fill="#3d3936" d="M 662.785156 306.878906 C 662.785156 306.878906 666.484375 309.578125 670.65625 309.523438 C 671.457031 306.667969 670.917969 303.621094 669.253906 301.242188 C 665.25 302.734375 662.785156 306.878906 662.785156 306.878906 Z M 662.785156 306.878906 " fill-opacity="1" fill-rule="nonzero"/><path fill="#3d3936" d="M 666.550781 296.347656 C 666.207031 296.03125 666.183594 295.5 666.5 295.160156 C 666.8125 294.820312 667.339844 294.796875 667.679688 295.105469 C 667.828125 295.234375 671.226562 298.117188 678.148438 294.019531 C 678.546875 293.78125 679.0625 293.914062 679.296875 294.3125 C 679.535156 294.710938 679.402344 295.226562 679.003906 295.464844 C 675.238281 297.695312 669.625 299.175781 666.550781 296.347656 Z M 666.550781 296.347656 " fill-opacity="1" fill-rule="nonzero"/><path fill="#3d3936" d="M 640.253906 298.644531 C 639.910156 298.332031 639.890625 297.800781 640.203125 297.457031 C 640.515625 297.117188 641.046875 297.09375 641.386719 297.40625 C 641.542969 297.542969 644.941406 300.410156 651.851562 296.316406 C 652.253906 296.082031 652.765625 296.214844 653.003906 296.613281 C 653.238281 297.011719 653.105469 297.527344 652.707031 297.761719 C 648.957031 299.984375 643.335938 301.480469 640.253906 298.644531 Z M 640.253906 298.644531 " fill-opacity="1" fill-rule="nonzero"/><path fill="#3d3936" d="M 667.65625 332.75 C 665.039062 336.539062 660.367188 336.664062 656.769531 334.0625 C 653.003906 331.375 650.9375 326.542969 650.9375 326.542969 C 650.9375 326.542969 659.28125 330.132812 670.035156 323.660156 C 670.035156 323.660156 670.125 329.144531 667.65625 332.75 Z M 667.65625 332.75 " fill-opacity="1" fill-rule="nonzero"/><path fill="#ffffff" d="M 666.011719 332.21875 C 664.183594 334.859375 660.925781 334.949219 658.414062 333.132812 C 660.238281 330.496094 663.496094 330.394531 666.011719 332.21875 Z M 666.011719 332.21875 " fill-opacity="1" fill-rule="nonzero"/><path fill="#3d3936" d="M 655.289062 317.757812 C 654.859375 317.585938 654.648438 317.097656 654.820312 316.664062 L 657.160156 310.796875 C 657.40625 310.179688 658.253906 310.074219 658.632812 310.632812 L 661.921875 315.417969 C 662.183594 315.800781 662.085938 316.324219 661.703125 316.585938 C 661.324219 316.847656 660.800781 316.753906 660.535156 316.371094 L 658.140625 312.882812 L 656.378906 317.289062 C 656.210938 317.714844 655.730469 317.933594 655.289062 317.757812 Z M 655.289062 317.757812 " fill-opacity="1" fill-rule="nonzero"/><path fill="#3d3936" d="M 698.648438 306.921875 C 698.207031 306.921875 697.835938 306.578125 697.808594 306.132812 C 697.574219 302.265625 700.921875 300.769531 702.722656 300.519531 C 703.183594 300.457031 703.605469 300.777344 703.667969 301.234375 C 703.734375 301.691406 703.414062 302.117188 702.957031 302.183594 C 702.808594 302.207031 699.289062 302.757812 699.484375 306.03125 C 699.515625 306.515625 699.132812 306.921875 698.648438 306.921875 Z M 698.648438 306.921875 " fill-opacity="1" fill-rule="nonzero"/><path fill="#3d3936" d="M 697.914062 305.808594 C 697.679688 305.410156 697.8125 304.894531 698.210938 304.660156 C 698.371094 304.566406 702.128906 302.398438 704.230469 304.503906 C 704.558594 304.835938 704.554688 305.367188 704.226562 305.695312 C 703.898438 306.019531 703.363281 306.019531 703.039062 305.691406 C 702.058594 304.703125 699.78125 305.6875 699.0625 306.109375 C 698.65625 306.347656 698.144531 306.207031 697.914062 305.808594 Z M 697.914062 305.808594 " fill-opacity="1" fill-rule="nonzero"/><path fill="#3d3936" d="M 672.5625 344.394531 C 672.5625 344.394531 686.394531 345.3125 695.421875 335.964844 C 695.421875 335.964844 692.648438 350.417969 675.566406 355.953125 Z M 672.5625 344.394531 " fill-opacity="1" fill-rule="nonzero"/><path fill="#f9b9ae" d="M 473.144531 402.585938 L 473.144531 444.386719 L 492.984375 474.214844 L 512.84375 444.386719 L 512.84375 396.503906 C 507.882812 393.234375 503.140625 391.71875 498.574219 391.523438 C 489.558594 391.148438 481.234375 395.914062 473.144531 402.585938 Z M 473.144531 402.585938 " fill-opacity="1" fill-rule="nonzero"/><path fill="#3d3936" d="M 492.285156 474.679688 L 474.648438 448.164062 C 474.394531 447.78125 474.496094 447.257812 474.882812 447 C 475.269531 446.742188 475.789062 446.847656 476.050781 447.234375 L 492.984375 472.695312 L 512.144531 443.917969 C 512.398438 443.53125 512.921875 443.429688 513.308594 443.6875 C 513.695312 443.941406 513.800781 444.464844 513.542969 444.851562 L 493.683594 474.679688 C 493.347656 475.179688 492.617188 475.175781 492.285156 474.679688 Z M 492.285156 474.679688 " fill-opacity="1" fill-rule="nonzero"/><path fill="#3d3936" d="M 473.144531 402.585938 L 473.144531 437.535156 C 492.539062 434.039062 502.050781 412.371094 498.574219 391.523438 C 489.558594 391.148438 481.234375 395.914062 473.144531 402.585938 Z M 473.144531 402.585938 " fill-opacity="1" fill-rule="nonzero"/><path fill="#f9b9ae" d="M 503.722656 380.746094 C 504.121094 382.03125 504.46875 383.328125 504.769531 384.640625 C 505.066406 385.949219 505.308594 387.265625 505.503906 388.585938 C 505.695312 389.910156 505.835938 391.230469 505.921875 392.554688 C 506.007812 393.875 506.042969 395.191406 506.019531 396.5 C 506 397.808594 505.925781 399.101562 505.796875 400.386719 C 505.671875 401.667969 505.488281 402.929688 505.257812 404.175781 C 505.023438 405.417969 504.738281 406.636719 504.402344 407.832031 C 504.0625 409.027344 503.675781 410.1875 503.238281 411.320312 C 502.800781 412.453125 502.316406 413.550781 501.785156 414.609375 C 501.25 415.667969 500.671875 416.6875 500.046875 417.664062 C 499.421875 418.640625 498.757812 419.570312 498.046875 420.457031 C 497.339844 421.339844 496.589844 422.175781 495.804688 422.957031 C 495.015625 423.742188 494.195312 424.472656 493.335938 425.148438 C 492.480469 425.824219 491.589844 426.441406 490.671875 427.003906 C 489.75 427.5625 488.804688 428.0625 487.832031 428.503906 C 486.855469 428.945312 485.863281 429.324219 484.84375 429.636719 C 483.828125 429.953125 482.792969 430.207031 481.742188 430.394531 C 480.691406 430.582031 479.625 430.707031 478.550781 430.765625 C 477.476562 430.824219 476.390625 430.820312 475.304688 430.75 C 474.214844 430.679688 473.121094 430.542969 472.03125 430.34375 C 470.9375 430.144531 469.847656 429.878906 468.761719 429.554688 C 467.679688 429.226562 466.601562 428.835938 465.535156 428.386719 C 464.46875 427.933594 463.414062 427.421875 462.375 426.851562 C 461.335938 426.28125 460.3125 425.652344 459.3125 424.96875 C 458.3125 424.28125 457.332031 423.542969 456.378906 422.75 C 455.425781 421.957031 454.5 421.113281 453.605469 420.21875 C 452.707031 419.328125 451.84375 418.386719 451.011719 417.402344 C 450.179688 416.417969 449.386719 415.394531 448.628906 414.328125 C 447.871094 413.261719 447.152344 412.15625 446.472656 411.019531 C 445.796875 409.882812 445.164062 408.714844 444.574219 407.515625 C 443.984375 406.316406 443.441406 405.089844 442.945312 403.84375 C 442.449219 402.59375 442 401.328125 441.601562 400.042969 C 441.203125 398.757812 440.855469 397.460938 440.554688 396.152344 C 440.257812 394.839844 440.015625 393.523438 439.820312 392.203125 C 439.628906 390.878906 439.488281 389.558594 439.402344 388.234375 C 439.316406 386.914062 439.28125 385.597656 439.304688 384.292969 C 439.324219 382.984375 439.398438 381.6875 439.527344 380.40625 C 439.652344 379.121094 439.835938 377.859375 440.066406 376.613281 C 440.300781 375.371094 440.585938 374.152344 440.921875 372.957031 C 441.261719 371.761719 441.648438 370.601562 442.085938 369.46875 C 442.523438 368.335938 443.007812 367.238281 443.539062 366.179688 C 444.074219 365.121094 444.652344 364.101562 445.277344 363.125 C 445.902344 362.148438 446.566406 361.21875 447.277344 360.332031 C 447.984375 359.449219 448.734375 358.613281 449.519531 357.832031 C 450.308594 357.046875 451.128906 356.316406 451.988281 355.640625 C 452.84375 354.964844 453.734375 354.347656 454.652344 353.789062 C 455.574219 353.226562 456.519531 352.726562 457.492188 352.285156 C 458.46875 351.84375 459.460938 351.46875 460.480469 351.152344 C 461.496094 350.835938 462.53125 350.582031 463.582031 350.394531 C 464.632812 350.207031 465.699219 350.082031 466.773438 350.023438 C 467.847656 349.964844 468.933594 349.96875 470.019531 350.039062 C 471.109375 350.109375 472.203125 350.246094 473.292969 350.445312 C 474.386719 350.644531 475.476562 350.910156 476.5625 351.238281 C 477.644531 351.5625 478.722656 351.953125 479.789062 352.40625 C 480.855469 352.855469 481.910156 353.367188 482.949219 353.9375 C 483.988281 354.507812 485.011719 355.136719 486.011719 355.824219 C 487.011719 356.507812 487.992188 357.246094 488.945312 358.039062 C 489.898438 358.832031 490.824219 359.675781 491.71875 360.570312 C 492.617188 361.460938 493.480469 362.402344 494.3125 363.386719 C 495.144531 364.371094 495.9375 365.394531 496.695312 366.460938 C 497.453125 367.527344 498.171875 368.632812 498.851562 369.769531 C 499.527344 370.90625 500.160156 372.078125 500.75 373.277344 C 501.339844 374.472656 501.882812 375.699219 502.378906 376.945312 C 502.875 378.195312 503.324219 379.460938 503.722656 380.746094 Z M 503.722656 380.746094 " fill-opacity="1" fill-rule="nonzero"/><path fill="#3d3936" d="M 491.074219 345.292969 L 439.925781 369.667969 L 439.925781 379.339844 C 463.253906 380.375 473.894531 366.273438 473.894531 366.273438 C 486.734375 388 510.441406 384.554688 510.441406 384.554688 L 522.679688 385.664062 C 513.289062 340.695312 491.074219 345.292969 491.074219 345.292969 Z M 491.074219 345.292969 " fill-opacity="1" fill-rule="nonzero"/><path fill="#3d3936" d="M 502.371094 342.984375 C 502.371094 354.960938 492.664062 364.671875 480.671875 364.671875 C 468.695312 364.671875 458.972656 354.960938 458.972656 342.984375 C 458.972656 330.984375 468.695312 321.273438 480.671875 321.273438 C 492.664062 321.273438 502.371094 330.984375 502.371094 342.984375 Z M 502.371094 342.984375 " fill-opacity="1" fill-rule="nonzero"/><path fill="#3d3936" d="M 468.976562 352.441406 C 468.976562 367.480469 456.792969 379.671875 441.734375 379.671875 C 426.703125 379.671875 414.492188 367.480469 414.492188 352.441406 C 414.492188 337.382812 426.703125 325.191406 441.734375 325.191406 C 456.792969 325.191406 468.976562 337.382812 468.976562 352.441406 Z M 468.976562 352.441406 " fill-opacity="1" fill-rule="nonzero"/><path fill="#3d3936" d="M 532.070312 362.511719 C 532.070312 374.835938 522.085938 384.824219 509.746094 384.824219 C 497.425781 384.824219 487.421875 374.835938 487.421875 362.511719 C 487.421875 350.167969 497.425781 340.179688 509.746094 340.179688 C 522.085938 340.179688 532.070312 350.167969 532.070312 362.511719 Z M 532.070312 362.511719 " fill-opacity="1" fill-rule="nonzero"/><path fill="#f9b9ae" d="M 502.144531 389.769531 C 502.144531 395.660156 506.925781 400.441406 512.824219 400.441406 C 518.714844 400.441406 523.492188 395.660156 523.492188 389.769531 C 523.492188 383.867188 518.714844 379.085938 512.824219 379.085938 C 506.925781 379.085938 502.144531 383.867188 502.144531 389.769531 Z M 502.144531 389.769531 " fill-opacity="1" fill-rule="nonzero"/><path fill="#ffffff" d="M 465.988281 395.394531 C 466.210938 395.417969 472.617188 400.15625 478.472656 396.058594 C 481.226562 394.117188 482.769531 391.175781 482.769531 391.175781 C 482.769531 391.175781 479.132812 388.710938 475.144531 388.832031 C 469.292969 388.960938 466.15625 395.265625 465.988281 395.394531 Z M 465.988281 395.394531 " fill-opacity="1" fill-rule="nonzero"/><path fill="#3d3936" d="M 465.988281 395.394531 C 466.210938 395.417969 472.617188 400.15625 478.472656 396.058594 C 478.453125 393.171875 477.171875 390.585938 475.144531 388.832031 C 469.292969 388.960938 466.15625 395.265625 465.988281 395.394531 Z M 465.988281 395.394531 " fill-opacity="1" fill-rule="nonzero"/><path fill="#ffffff" d="M 444.089844 400.207031 C 444.277344 400.226562 449.976562 404.425781 455.160156 400.800781 C 457.605469 399.078125 458.972656 396.46875 458.972656 396.46875 C 458.972656 396.46875 455.746094 394.28125 452.210938 394.390625 C 447.015625 394.503906 444.265625 400.074219 444.089844 400.207031 Z M 444.089844 400.207031 " fill-opacity="1" fill-rule="nonzero"/><path fill="#3d3936" d="M 444.089844 400.207031 C 444.277344 400.226562 449.976562 404.425781 455.160156 400.800781 C 455.144531 398.234375 454.007812 395.945312 452.210938 394.390625 C 447.015625 394.503906 444.265625 400.074219 444.089844 400.207031 Z M 444.089844 400.207031 " fill-opacity="1" fill-rule="nonzero"/><path fill="#3d3936" d="M 464.542969 387.0625 C 464.109375 386.898438 463.890625 386.414062 464.054688 385.980469 C 468.304688 374.753906 480.753906 377.824219 480.882812 377.855469 C 481.332031 377.972656 481.601562 378.429688 481.484375 378.878906 C 481.371094 379.328125 480.910156 379.597656 480.464844 379.484375 C 480.011719 379.367188 469.339844 376.769531 465.628906 386.574219 C 465.464844 387.003906 464.984375 387.230469 464.542969 387.0625 Z M 464.542969 387.0625 " fill-opacity="1" fill-rule="nonzero"/><path fill="#3d3936" d="M 440.671875 390.109375 C 440.277344 389.863281 440.160156 389.34375 440.40625 388.953125 C 443.777344 383.558594 449.9375 384.699219 454.59375 388.765625 C 454.945312 389.070312 454.980469 389.601562 454.675781 389.949219 C 454.371094 390.296875 453.839844 390.335938 453.488281 390.03125 C 449.675781 386.785156 444.6875 385.277344 441.828125 389.84375 C 441.585938 390.230469 441.070312 390.359375 440.671875 390.109375 Z M 440.671875 390.109375 " fill-opacity="1" fill-rule="nonzero"/><path fill="#3d3936" d="M 457.699219 411.421875 C 457.042969 411.421875 456.644531 410.703125 456.980469 410.148438 L 462.152344 401.582031 C 462.390625 401.183594 462.90625 401.054688 463.304688 401.296875 C 463.703125 401.535156 463.828125 402.050781 463.589844 402.449219 L 459.273438 409.601562 L 467.34375 408.898438 C 467.792969 408.847656 468.214844 409.199219 468.253906 409.660156 C 468.292969 410.125 467.953125 410.53125 467.488281 410.570312 L 457.773438 411.417969 C 457.75 411.421875 457.726562 411.421875 457.699219 411.421875 Z M 457.699219 411.421875 " fill-opacity="1" fill-rule="nonzero"/><path fill="#3d3936" d="M 488.941406 405.40625 C 488.351562 404.179688 481.40625 414.175781 469.820312 416.136719 C 469.820312 416.136719 479.023438 423.175781 485.289062 419.753906 C 491.554688 416.335938 488.941406 405.40625 488.941406 405.40625 Z M 488.941406 405.40625 " fill-opacity="1" fill-rule="nonzero"/><path fill="#3d3936" d="M 511.003906 394.582031 C 510.546875 394.582031 510.171875 394.214844 510.164062 393.757812 C 510.019531 386.285156 516.050781 384.054688 516.109375 384.03125 C 516.542969 383.878906 517.027344 384.105469 517.183594 384.542969 C 517.339844 384.980469 517.109375 385.460938 516.675781 385.617188 C 516.453125 385.695312 511.722656 387.507812 511.84375 393.722656 C 511.851562 394.1875 511.484375 394.570312 511.019531 394.582031 C 511.015625 394.582031 511.007812 394.582031 511.003906 394.582031 Z M 511.003906 394.582031 " fill-opacity="1" fill-rule="nonzero"/><path fill="#3d3936" d="M 510.601562 392.578125 C 510.230469 392.296875 510.160156 391.769531 510.4375 391.398438 C 513.148438 387.832031 516.566406 388.816406 517.996094 389.839844 C 518.371094 390.109375 518.460938 390.632812 518.191406 391.011719 C 517.921875 391.386719 517.402344 391.476562 517.023438 391.210938 C 516.734375 391.007812 514.121094 389.324219 511.777344 392.417969 C 511.496094 392.785156 510.972656 392.859375 510.601562 392.578125 Z M 510.601562 392.578125 " fill-opacity="1" fill-rule="nonzero"/><path fill="#3d3936" d="M 286.726562 295.265625 L 236.011719 271.4375 L 236.011719 355.117188 L 259.640625 364.980469 Z M 286.726562 295.265625 " fill-opacity="1" fill-rule="nonzero"/><path fill="#88eaa3" d="M 293.902344 290.140625 L 251.375 343.574219 L 236.101562 362.75 L 227.085938 374.085938 C 204.015625 339.53125 183.097656 306.089844 172.167969 277.933594 L 190.121094 237.585938 Z M 293.902344 290.140625 " fill-opacity="1" fill-rule="nonzero"/><path fill="#6cdd87" d="M 251.375 343.574219 L 236.101562 362.75 L 213.558594 284.390625 Z M 251.375 343.574219 " fill-opacity="1" fill-rule="nonzero"/><path fill="#88eaa3" d="M 259.640625 444.601562 L 86.851562 444.601562 L 45.828125 360.046875 C 24.484375 316.335938 45.410156 263.734375 90.140625 246.179688 C 93.3125 244.921875 96.601562 243.84375 99.992188 242.96875 C 142.988281 231.929688 141.695312 232.132812 144.996094 231.511719 C 165.0625 227.609375 185.9375 232.488281 202.246094 245.019531 Z M 259.640625 444.601562 " fill-opacity="1" fill-rule="nonzero"/><path fill="#6cdd87" d="M 110.917969 360.589844 L 88.378906 423.773438 L 86.871094 361.488281 Z M 110.917969 360.589844 " fill-opacity="1" fill-rule="nonzero"/><path fill="#3d3936" d="M 235.203125 362.664062 L 210.246094 275.875 C 210.117188 275.429688 210.375 274.964844 210.820312 274.835938 C 211.269531 274.707031 211.734375 274.964844 211.859375 275.410156 L 236.816406 362.199219 C 236.945312 362.644531 236.6875 363.113281 236.242188 363.238281 C 235.804688 363.367188 235.332031 363.117188 235.203125 362.664062 Z M 235.203125 362.664062 " fill-opacity="1" fill-rule="nonzero"/><path fill="#3d3936" d="M 183.207031 159.5 C 177.640625 168.816406 165.550781 171.859375 156.238281 166.289062 C 146.925781 160.71875 143.902344 148.640625 149.472656 139.324219 C 155.039062 130.007812 167.097656 126.972656 176.410156 132.542969 C 185.722656 138.113281 188.777344 150.183594 183.207031 159.5 Z M 183.207031 159.5 " fill-opacity="1" fill-rule="nonzero"/><path fill="#f4af9a" d="M 135.800781 218.851562 C 117.136719 215.335938 105.269531 193.230469 105.070312 181.882812 C 104.644531 155.832031 110.570312 127.71875 134.785156 129.929688 C 148.269531 131.160156 160.445312 138.820312 168.644531 149.878906 C 175.171875 158.648438 179.191406 169.601562 179.394531 181.125 C 179.839844 207.175781 165.648438 224.46875 135.800781 218.851562 Z M 135.800781 218.851562 " fill-opacity="1" fill-rule="nonzero"/><path fill="#f9b9ae" d="M 135.800781 218.851562 C 117.136719 215.335938 105.269531 193.230469 105.070312 181.882812 C 104.644531 155.832031 110.570312 127.71875 134.785156 129.929688 C 148.269531 131.160156 160.445312 138.820312 168.644531 149.878906 C 175.171875 158.648438 179.191406 169.601562 179.394531 181.125 C 179.839844 207.175781 165.648438 224.46875 135.800781 218.851562 Z M 135.800781 218.851562 " fill-opacity="1" fill-rule="nonzero"/><path fill="#f9b9ae" d="M 135.519531 218.78125 L 131.964844 234.304688 L 94.476562 245.597656 L 104.609375 187.070312 L 105.828125 187.171875 C 108.691406 198.953125 119.597656 215.613281 135.519531 218.78125 Z M 135.519531 218.78125 " fill-opacity="1" fill-rule="nonzero"/><path fill="#3d3936" d="M 124.222656 167.785156 C 123.707031 169.828125 122.890625 171.828125 121.753906 173.730469 C 115.472656 184.242188 101.832031 187.675781 91.324219 181.390625 C 80.816406 175.105469 77.40625 161.476562 83.691406 150.964844 C 89.972656 140.453125 103.574219 137.027344 114.082031 143.3125 C 122.691406 148.460938 126.558594 158.53125 124.222656 167.785156 " fill-opacity="1" fill-rule="nonzero"/><path fill="#3d3936" d="M 117.121094 188.175781 C 116.773438 189.542969 116.226562 190.882812 115.46875 192.15625 C 111.257812 199.195312 102.125 201.492188 95.085938 197.285156 C 88.050781 193.074219 85.765625 183.949219 89.972656 176.90625 C 94.183594 169.867188 103.292969 167.574219 110.328125 171.785156 C 116.09375 175.230469 118.6875 181.976562 117.121094 188.175781 " fill-opacity="1" fill-rule="nonzero"/><path fill="#3d3936" d="M 152.140625 203.429688 C 151.730469 203.214844 151.570312 202.710938 151.78125 202.296875 C 151.996094 201.886719 152.5 201.726562 152.914062 201.9375 C 153.160156 202.066406 158.933594 204.984375 162.679688 201.152344 C 163.003906 200.820312 163.535156 200.8125 163.867188 201.136719 C 164.199219 201.460938 164.203125 201.992188 163.882812 202.324219 C 160.71875 205.5625 155.734375 205.304688 152.140625 203.429688 Z M 152.140625 203.429688 " fill-opacity="1" fill-rule="nonzero"/><path fill="#3d3936" d="M 178.660156 146.398438 C 166.636719 161.144531 140.542969 165.953125 120.414062 157.144531 C 100.308594 148.332031 93.789062 129.226562 105.8125 114.496094 C 117.835938 99.761719 143.871094 94.957031 163.976562 103.765625 C 184.082031 112.574219 190.683594 131.667969 178.660156 146.398438 Z M 178.660156 146.398438 " fill-opacity="1" fill-rule="nonzero"/><path fill="#f9b9ae" d="M 127.238281 179.085938 C 126.648438 185.527344 120.953125 190.285156 114.496094 189.695312 C 108.054688 189.109375 103.300781 183.398438 103.890625 176.953125 C 104.480469 170.496094 110.1875 165.753906 116.628906 166.339844 C 123.082031 166.929688 127.828125 172.628906 127.238281 179.085938 Z M 127.238281 179.085938 " fill-opacity="1" fill-rule="nonzero"/><path fill="#3d3936" d="M 114.5 190.535156 C 113.769531 190.535156 111.96875 190.175781 110.453125 189.5 C 110.03125 189.3125 109.839844 188.816406 110.027344 188.390625 C 110.214844 187.96875 110.710938 187.777344 111.136719 187.964844 C 112.222656 188.449219 113.378906 188.75 114.574219 188.859375 C 115.035156 188.902344 115.378906 189.308594 115.335938 189.773438 C 115.292969 190.207031 114.929688 190.535156 114.5 190.535156 Z M 114.5 190.535156 " fill-opacity="1" fill-rule="nonzero"/><path fill="#3d3936" d="M 110.453125 189.5 C 105.539062 187.308594 102.5625 182.238281 103.054688 176.875 C 103.683594 169.960938 109.785156 164.875 116.707031 165.503906 C 120.871094 165.882812 124.5625 168.300781 126.578125 171.964844 C 126.800781 172.371094 126.652344 172.882812 126.246094 173.105469 C 125.839844 173.332031 125.328125 173.183594 125.105469 172.773438 C 123.359375 169.601562 120.160156 167.507812 116.550781 167.179688 C 110.582031 166.628906 105.273438 171.023438 104.726562 177.027344 C 104.304688 181.671875 106.878906 186.066406 111.136719 187.964844 C 111.5625 188.15625 111.753906 188.652344 111.5625 189.074219 C 111.378906 189.496094 110.882812 189.691406 110.453125 189.5 Z M 110.453125 189.5 " fill-opacity="1" fill-rule="nonzero"/><path fill="#f9b9ae" d="M 144.996094 231.511719 C 143.898438 247.113281 130.921875 259.425781 115.042969 259.425781 C 104.683594 259.425781 95.542969 254.164062 90.140625 246.179688 C 93.3125 244.921875 96.601562 243.84375 99.992188 242.96875 C 142.988281 231.929688 141.695312 232.132812 144.996094 231.511719 Z M 144.996094 231.511719 " fill-opacity="1" fill-rule="nonzero"/><path fill="#3d3936" d="M 135.519531 218.300781 C 135.519531 218.300781 123.898438 217.207031 112.992188 207.839844 C 115.953125 217.703125 123.335938 225.445312 133.15625 229.109375 Z M 135.519531 218.300781 " fill-opacity="1" fill-rule="nonzero"/><path fill="#3d3936" d="M 115.042969 260.265625 C 104.785156 260.265625 95.214844 255.175781 89.445312 246.652344 C 89.1875 246.265625 89.289062 245.742188 89.671875 245.484375 C 90.054688 245.222656 90.578125 245.324219 90.839844 245.707031 C 96.292969 253.773438 105.34375 258.585938 115.042969 258.585938 C 128.734375 258.585938 140.742188 248.875 143.589844 235.492188 C 143.6875 235.039062 144.132812 234.75 144.585938 234.847656 C 145.039062 234.945312 145.328125 235.390625 145.234375 235.84375 C 142.222656 249.996094 129.523438 260.265625 115.042969 260.265625 Z M 115.042969 260.265625 " fill-opacity="1" fill-rule="nonzero"/><path fill="#3d3936" d="M 118.644531 182.015625 C 118.203125 181.875 117.957031 181.402344 118.097656 180.960938 C 119.304688 177.140625 116.929688 174.617188 113.0625 174.050781 C 112.605469 173.980469 112.289062 173.554688 112.355469 173.097656 C 112.421875 172.636719 112.84375 172.320312 113.308594 172.386719 C 118.039062 173.082031 121.265625 176.511719 119.699219 181.46875 C 119.558594 181.90625 119.089844 182.15625 118.644531 182.015625 Z M 118.644531 182.015625 " fill-opacity="1" fill-rule="nonzero"/><path fill="#3d3936" d="M 118.296875 179.660156 C 117.394531 178.136719 115.160156 177.722656 114.28125 178.429688 C 113.917969 178.722656 113.390625 178.664062 113.097656 178.304688 C 112.808594 177.941406 112.863281 177.414062 113.226562 177.121094 C 114.953125 175.726562 118.351562 176.457031 119.742188 178.800781 C 119.980469 179.199219 119.847656 179.71875 119.449219 179.953125 C 119.050781 180.191406 118.535156 180.058594 118.296875 179.660156 Z M 118.296875 179.660156 " fill-opacity="1" fill-rule="nonzero"/><path fill="#bde3ff" d="M 319.546875 310.6875 L 316.878906 324.195312 " fill-opacity="1" fill-rule="nonzero"/><path fill="#3d3936" d="M 316.878906 325.035156 C 316.351562 325.035156 315.953125 324.550781 316.054688 324.03125 L 318.722656 310.527344 C 318.8125 310.070312 319.253906 309.769531 319.710938 309.863281 C 320.164062 309.953125 320.460938 310.394531 320.371094 310.851562 L 317.703125 324.355469 C 317.625 324.757812 317.273438 325.035156 316.878906 325.035156 Z M 316.878906 325.035156 " fill-opacity="1" fill-rule="nonzero"/><path fill="#bde3ff" d="M 324.292969 316.648438 L 325.214844 324.195312 " fill-opacity="1" fill-rule="nonzero"/><path fill="#3d3936" d="M 324.382812 324.296875 L 323.457031 316.75 C 323.402344 316.292969 323.726562 315.871094 324.1875 315.816406 C 324.664062 315.757812 325.066406 316.085938 325.125 316.546875 L 326.050781 324.09375 C 326.105469 324.550781 325.777344 324.972656 325.320312 325.027344 C 324.84375 325.082031 324.4375 324.75 324.382812 324.296875 Z M 324.382812 324.296875 " fill-opacity="1" fill-rule="nonzero"/><path fill="#3d3936" d="M 254.726562 428.359375 L 110.386719 428.359375 C 109.921875 428.359375 109.546875 427.984375 109.546875 427.519531 C 109.546875 427.054688 109.921875 426.679688 110.386719 426.679688 L 254.726562 426.679688 C 255.191406 426.679688 255.566406 427.054688 255.566406 427.519531 C 255.566406 427.984375 255.191406 428.359375 254.726562 428.359375 Z M 254.726562 428.359375 " fill-opacity="1" fill-rule="nonzero"/><path fill="#3d3936" d="M 138.746094 170.371094 C 138.363281 170.109375 138.261719 169.585938 138.523438 169.203125 C 142.929688 162.726562 148.941406 165.808594 149 165.839844 C 149.410156 166.058594 149.566406 166.566406 149.347656 166.976562 C 149.132812 167.386719 148.625 167.542969 148.214844 167.328125 C 148.023438 167.226562 143.460938 164.9375 139.914062 170.148438 C 139.648438 170.535156 139.125 170.628906 138.746094 170.371094 Z M 138.746094 170.371094 " fill-opacity="1" fill-rule="nonzero"/><path fill="#3d3936" d="M 163.542969 166.625 C 163.183594 166.328125 163.132812 165.800781 163.429688 165.441406 C 168.417969 159.402344 174.113281 163.03125 174.171875 163.066406 C 174.558594 163.324219 174.667969 163.84375 174.414062 164.230469 C 174.160156 164.617188 173.640625 164.726562 173.253906 164.476562 C 173.070312 164.359375 168.742188 161.652344 164.722656 166.511719 C 164.429688 166.871094 163.898438 166.921875 163.542969 166.625 Z M 163.542969 166.625 " fill-opacity="1" fill-rule="nonzero"/><path fill="#3d3936" d="M 157.902344 186.925781 C 157.488281 186.925781 157.125 186.617188 157.070312 186.195312 C 157.007812 185.734375 157.332031 185.3125 157.792969 185.253906 L 162.628906 184.609375 L 158.359375 172.3125 C 158.207031 171.875 158.4375 171.394531 158.878906 171.242188 C 159.3125 171.089844 159.792969 171.324219 159.945312 171.761719 L 164.550781 185.03125 C 164.726562 185.535156 164.394531 186.070312 163.871094 186.140625 C 163.78125 186.152344 157.988281 186.925781 157.902344 186.925781 Z M 157.902344 186.925781 " fill-opacity="1" fill-rule="nonzero"/><path fill="#ffffff" d="M 154.074219 174.71875 C 153.90625 174.882812 151.546875 180.722656 146.964844 181.394531 C 142.808594 182.109375 138.515625 178.667969 138.515625 178.667969 C 138.734375 178.46875 140.824219 172.769531 146.015625 171.949219 C 150.03125 171.488281 154.074219 174.71875 154.074219 174.71875 Z M 154.074219 174.71875 " fill-opacity="1" fill-rule="nonzero"/><path fill="#3d3936" d="M 154.074219 174.71875 C 153.90625 174.882812 151.546875 180.722656 146.964844 181.394531 C 144.203125 178.980469 143.789062 174.863281 146.015625 171.949219 C 150.03125 171.488281 154.074219 174.71875 154.074219 174.71875 Z M 154.074219 174.71875 " fill-opacity="1" fill-rule="nonzero"/><path fill="#ffffff" d="M 178.003906 172.875 C 178.003906 172.875 175.382812 177.445312 171.496094 177.929688 C 171.351562 177.953125 171.1875 177.953125 171.042969 177.957031 C 167.320312 178.132812 163.925781 174.648438 163.925781 174.648438 C 163.925781 174.648438 166.566406 170.097656 170.453125 169.613281 C 174.40625 169.121094 177.835938 172.800781 178.003906 172.875 Z M 178.003906 172.875 " fill-opacity="1" fill-rule="nonzero"/><path fill="#3d3936" d="M 178.003906 172.875 C 178.003906 172.875 175.382812 177.445312 171.496094 177.929688 C 171.351562 177.953125 171.1875 177.953125 171.042969 177.957031 C 168.882812 175.539062 168.96875 171.882812 171.238281 169.566406 C 174.8125 169.601562 178.003906 172.875 178.003906 172.875 Z M 178.003906 172.875 " fill-opacity="1" fill-rule="nonzero"/><path fill="#f66b78" d="M 589.105469 314.300781 C 589.105469 331.644531 575.054688 345.6875 557.730469 345.6875 C 540.40625 345.6875 526.351562 331.644531 526.351562 314.300781 C 526.351562 296.96875 540.40625 282.925781 557.730469 282.925781 C 575.054688 282.925781 589.105469 296.96875 589.105469 314.300781 Z M 589.105469 314.300781 " fill-opacity="1" fill-rule="nonzero"/><path fill="#ffffff" d="M 395.253906 403.761719 L 395.253906 403.78125 C 395.253906 444.507812 362.226562 477.546875 321.511719 477.546875 C 280.792969 477.546875 247.75 444.527344 247.75 403.78125 L 247.75 403.761719 C 247.75 363.015625 280.777344 329.976562 321.511719 329.976562 C 341.878906 329.976562 360.308594 338.222656 373.648438 351.585938 C 386.988281 364.949219 395.253906 383.386719 395.253906 403.761719 Z M 395.253906 403.761719 " fill-opacity="1" fill-rule="nonzero"/><path fill="#3d3936" d="M 321.511719 478.386719 C 280.386719 478.386719 246.910156 445.117188 246.910156 403.78125 C 246.910156 362.613281 280.375 329.132812 321.511719 329.132812 C 341.445312 329.132812 360.171875 336.898438 374.242188 350.992188 C 388.332031 365.109375 396.09375 383.851562 396.09375 403.761719 L 396.09375 403.78125 C 396.09375 444.917969 362.636719 478.386719 321.511719 478.386719 Z M 321.511719 330.816406 C 281.300781 330.816406 248.589844 363.539062 248.589844 403.761719 C 248.589844 444.484375 281.636719 476.703125 321.511719 476.703125 C 361.710938 476.703125 394.414062 443.992188 394.414062 403.78125 L 394.414062 403.761719 C 394.414062 384.296875 386.828125 365.980469 373.054688 352.179688 C 359.300781 338.402344 340.996094 330.816406 321.511719 330.816406 Z M 321.511719 330.816406 " fill-opacity="1" fill-rule="nonzero"/><path fill="#ffc67b" d="M 380.074219 403.761719 L 380.074219 403.777344 C 380.074219 436.121094 353.84375 462.359375 321.507812 462.359375 C 305.335938 462.359375 290.695312 455.808594 280.085938 445.195312 C 269.476562 434.597656 262.929688 419.941406 262.929688 403.777344 L 262.929688 403.761719 C 262.929688 371.398438 289.160156 345.160156 321.507812 345.160156 C 353.90625 345.160156 380.074219 371.464844 380.074219 403.761719 Z M 380.074219 403.761719 " fill-opacity="1" fill-rule="nonzero"/><path fill="#3d3936" d="M 321.507812 463.203125 C 305.640625 463.203125 290.71875 457.019531 279.492188 445.789062 C 268.269531 434.578125 262.089844 419.65625 262.089844 403.777344 C 262.089844 370.984375 288.746094 344.320312 321.507812 344.320312 C 354.363281 344.320312 380.914062 370.957031 380.914062 403.761719 L 380.914062 403.777344 C 380.914062 436.542969 354.265625 463.203125 321.507812 463.203125 Z M 321.507812 346 C 289.671875 346 263.769531 371.910156 263.769531 403.761719 C 263.769531 419.207031 269.773438 433.707031 280.679688 444.601562 C 291.589844 455.511719 306.085938 461.519531 321.507812 461.519531 C 353.339844 461.519531 379.234375 435.617188 379.234375 403.777344 L 379.234375 403.761719 C 379.234375 371.949219 353.503906 346 321.507812 346 Z M 321.507812 346 " fill-opacity="1" fill-rule="nonzero"/><path fill="#f9b9ae" d="M 229.980469 414.886719 L 88.378906 429.789062 L 88.183594 343.808594 L 26.105469 343.808594 L 27.574219 447.59375 C 27.621094 471.753906 48.820312 490.410156 72.78125 487.378906 L 238.117188 461.636719 Z M 229.980469 414.886719 " fill-opacity="1" fill-rule="nonzero"/><path fill="#3d3936" d="M 88.257812 376.511719 L 88.183594 343.808594 L 26.105469 343.808594 L 26.570312 363.75 Z M 88.257812 376.511719 " fill-opacity="1" fill-rule="nonzero"/><path fill="#88eaa3" d="M 87.800781 247.394531 C 58.949219 255.984375 35.867188 277.847656 25.992188 306.289062 C 19.753906 324.25 17.976562 343.957031 12.273438 364.277344 L 115.402344 360.421875 Z M 87.800781 247.394531 " fill-opacity="1" fill-rule="nonzero"/><path fill="#3d3936" d="M 12.273438 365.117188 C 11.824219 365.117188 11.453125 364.761719 11.4375 364.308594 C 11.417969 363.84375 11.78125 363.453125 12.242188 363.4375 L 114.34375 359.621094 L 94.867188 279.878906 C 94.757812 279.429688 95.035156 278.976562 95.484375 278.863281 C 95.933594 278.753906 96.390625 279.03125 96.5 279.480469 L 116.21875 360.222656 C 116.347656 360.742188 115.964844 361.242188 115.433594 361.261719 L 12.304688 365.117188 C 12.296875 365.117188 12.285156 365.117188 12.273438 365.117188 Z M 12.273438 365.117188 " fill-opacity="1" fill-rule="nonzero"/><path fill="#3d3936" d="M 110.917969 343.785156 L 28.847656 343.785156 C 28.382812 343.785156 28.007812 343.410156 28.007812 342.945312 C 28.007812 342.480469 28.382812 342.105469 28.847656 342.105469 L 110.917969 342.105469 C 111.382812 342.105469 111.757812 342.480469 111.757812 342.945312 C 111.757812 343.410156 111.382812 343.785156 110.917969 343.785156 Z M 110.917969 343.785156 " fill-opacity="1" fill-rule="nonzero"/><path fill="#f9b9ae" d="M 238.117188 461.636719 L 279.738281 457.164062 C 283.308594 456.289062 285.417969 452.582031 284.34375 449.066406 C 283.582031 446.492188 281.238281 444.621094 278.492188 444.527344 L 282.007812 443.664062 C 285.59375 442.753906 287.675781 439.097656 286.621094 435.550781 C 285.792969 432.828125 283.285156 431.023438 280.519531 431.003906 L 283.28125 430.320312 C 286.832031 429.449219 288.953125 425.765625 287.898438 422.207031 C 286.933594 419.023438 283.683594 417.097656 280.417969 417.800781 L 274.410156 419.082031 C 277.492188 417.886719 279.199219 414.46875 278.222656 411.230469 C 277.304688 408.125 274.03125 406.105469 270.746094 406.824219 L 248.386719 411.226562 L 249.3125 398.792969 C 249.429688 397.074219 248.78125 395.382812 247.53125 394.203125 C 244.691406 391.523438 240.050781 392.429688 238.429688 396 L 229.847656 414.871094 Z M 238.117188 461.636719 " fill-opacity="1" fill-rule="nonzero"/><path fill="#3d3936" d="M 229.84375 415.710938 C 229.730469 415.710938 229.609375 415.6875 229.5 415.636719 C 229.074219 415.445312 228.890625 414.945312 229.082031 414.523438 L 237.667969 395.652344 C 239.523438 391.5625 244.835938 390.503906 248.109375 393.589844 C 249.542969 394.945312 250.285156 396.863281 250.152344 398.851562 L 249.226562 411.289062 C 249.191406 411.75 248.777344 412.09375 248.324219 412.0625 C 247.863281 412.027344 247.515625 411.625 247.550781 411.164062 L 248.476562 398.730469 C 248.574219 397.25 248.023438 395.820312 246.957031 394.8125 C 244.539062 392.535156 240.585938 393.289062 239.195312 396.347656 L 230.609375 415.21875 C 230.46875 415.527344 230.164062 415.710938 229.84375 415.710938 Z M 229.84375 415.710938 " fill-opacity="1" fill-rule="nonzero"/><path fill="#3d3936" d="M 262.269531 421.296875 C 262.183594 420.839844 262.488281 420.402344 262.945312 420.316406 L 274.261719 418.257812 C 274.714844 418.175781 275.152344 418.476562 275.234375 418.933594 C 275.320312 419.390625 275.015625 419.828125 274.558594 419.910156 L 263.242188 421.972656 C 262.773438 422.054688 262.347656 421.742188 262.269531 421.296875 Z M 262.269531 421.296875 " fill-opacity="1" fill-rule="nonzero"/><path fill="#3d3936" d="M 265.191406 433.773438 C 265.105469 433.316406 265.410156 432.878906 265.867188 432.796875 L 278.367188 430.515625 C 278.828125 430.4375 279.261719 430.738281 279.34375 431.195312 C 279.429688 431.652344 279.125 432.085938 278.667969 432.171875 L 266.167969 434.449219 C 265.703125 434.53125 265.273438 434.222656 265.191406 433.773438 Z M 265.191406 433.773438 " fill-opacity="1" fill-rule="nonzero"/><path fill="#3d3936" d="M 262.574219 447.230469 C 262.492188 446.777344 262.796875 446.339844 263.253906 446.253906 L 278.21875 443.527344 C 278.675781 443.449219 279.109375 443.746094 279.195312 444.203125 C 279.277344 444.660156 278.976562 445.097656 278.519531 445.183594 L 263.550781 447.910156 C 263.082031 447.992188 262.65625 447.679688 262.574219 447.230469 Z M 262.574219 447.230469 " fill-opacity="1" fill-rule="nonzero"/><path fill="#a3a3f5" d="M 855.386719 179.226562 C 855.386719 195.765625 841.996094 209.179688 825.464844 209.179688 L 613.683594 209.179688 L 613.683594 179.226562 C 613.683594 162.6875 627.09375 149.292969 643.628906 149.292969 L 825.464844 149.292969 C 841.996094 149.292969 855.386719 162.6875 855.386719 179.226562 Z M 855.386719 179.226562 " fill-opacity="1" fill-rule="nonzero"/><path fill="#3d3936" d="M 825.464844 210.019531 L 613.683594 210.019531 C 613.222656 210.019531 612.84375 209.644531 612.84375 209.179688 L 612.84375 179.226562 C 612.84375 162.257812 626.652344 148.453125 643.625 148.453125 L 825.464844 148.453125 C 842.425781 148.453125 856.230469 162.257812 856.230469 179.226562 C 856.230469 196.207031 842.425781 210.019531 825.464844 210.019531 Z M 614.527344 208.339844 L 825.464844 208.339844 C 841.5 208.339844 854.546875 195.28125 854.546875 179.226562 C 854.546875 163.183594 841.5 150.132812 825.464844 150.132812 L 643.625 150.132812 C 627.582031 150.132812 614.527344 163.183594 614.527344 179.226562 Z M 614.527344 208.339844 " fill-opacity="1" fill-rule="nonzero"/><path fill="#ffffff" d="M 663.164062 181.296875 C 663.164062 190.765625 655.484375 198.449219 646.015625 198.449219 C 636.550781 198.449219 628.871094 190.765625 628.871094 181.296875 C 628.871094 171.824219 636.550781 164.144531 646.015625 164.144531 C 655.484375 164.144531 663.164062 171.824219 663.164062 181.296875 Z M 663.164062 181.296875 " fill-opacity="1" fill-rule="nonzero"/><path fill="#3d3936" d="M 646.019531 199.289062 C 636.101562 199.289062 628.03125 191.214844 628.03125 181.296875 C 628.03125 171.375 636.101562 163.304688 646.019531 163.304688 C 655.933594 163.304688 664.003906 171.375 664.003906 181.296875 C 664.003906 191.214844 655.933594 199.289062 646.019531 199.289062 Z M 646.019531 164.984375 C 637.027344 164.984375 629.710938 172.300781 629.710938 181.296875 C 629.710938 190.289062 637.027344 197.605469 646.019531 197.605469 C 655.007812 197.605469 662.324219 190.289062 662.324219 181.296875 C 662.324219 172.300781 655.007812 164.984375 646.019531 164.984375 Z M 646.019531 164.984375 " fill-opacity="1" fill-rule="nonzero"/><path fill="#3d3936" d="M 822.441406 176.175781 L 680.121094 176.175781 C 679.65625 176.175781 679.28125 175.796875 679.28125 175.335938 C 679.28125 174.871094 679.65625 174.496094 680.121094 174.496094 L 822.441406 174.496094 C 822.90625 174.496094 823.285156 174.871094 823.285156 175.335938 C 823.285156 175.796875 822.90625 176.175781 822.441406 176.175781 Z M 822.441406 176.175781 " fill-opacity="1" fill-rule="nonzero"/><path fill="#3d3936" d="M 781.960938 188.097656 L 680.121094 188.097656 C 679.65625 188.097656 679.28125 187.71875 679.28125 187.257812 C 679.28125 186.792969 679.65625 186.414062 680.121094 186.414062 L 781.960938 186.414062 C 782.425781 186.414062 782.800781 186.792969 782.800781 187.257812 C 782.800781 187.71875 782.425781 188.097656 781.960938 188.097656 Z M 781.960938 188.097656 " fill-opacity="1" fill-rule="nonzero"/><path fill="#3d3936" d="M 642.742188 185.414062 L 639.328125 181.09375 C 639.039062 180.730469 639.101562 180.203125 639.464844 179.914062 C 639.832031 179.625 640.359375 179.691406 640.644531 180.054688 L 643.539062 183.714844 L 651.238281 177.664062 C 651.605469 177.375 652.132812 177.441406 652.417969 177.804688 C 652.707031 178.171875 652.640625 178.699219 652.277344 178.984375 L 643.921875 185.554688 C 643.554688 185.84375 643.027344 185.777344 642.742188 185.414062 Z M 642.742188 185.414062 " fill-opacity="1" fill-rule="nonzero"/><path fill="#ffffff" d="M 315.777344 376.808594 C 319.378906 375.875 322.070312 375.574219 323.84375 375.898438 C 325.734375 376.292969 326.890625 377.308594 327.308594 378.9375 L 327.328125 379.007812 C 327.570312 380.804688 326.488281 382.015625 324.078125 382.640625 C 321.925781 382.65625 319.738281 382.914062 317.515625 383.414062 L 321.414062 397.953125 C 330.703125 396.632812 336.339844 399.847656 338.339844 407.585938 C 339.984375 416.425781 336.816406 422.53125 328.851562 425.914062 L 330.945312 433.75 C 331.570312 436.167969 328.902344 437.398438 328.730469 437.558594 C 327.148438 437.964844 325.847656 437.492188 324.839844 436.136719 C 324.53125 435.234375 323.75 432.484375 322.488281 427.886719 C 318.292969 428.898438 315.058594 429.179688 312.789062 428.738281 C 310.097656 428.28125 308.546875 427.257812 308.140625 425.675781 C 307.164062 421.890625 309.828125 420.835938 313.425781 421.664062 C 314.996094 422.066406 317.425781 421.929688 320.703125 421.253906 C 319.519531 416.855469 318.082031 411.519531 316.386719 405.242188 C 307.910156 405.886719 302.753906 402.660156 300.921875 395.5625 C 298.984375 388.050781 301.832031 382.527344 309.46875 378.988281 L 308.597656 375.609375 C 307.929688 373.015625 307.855469 370.65625 310.660156 369.933594 C 314.488281 368.945312 314.710938 373.132812 314.835938 373.300781 Z M 307.121094 393.816406 C 307.964844 397.078125 310.484375 398.730469 314.683594 398.773438 C 313.617188 394.734375 312.464844 390.367188 311.226562 385.664062 C 307.605469 387.675781 306.238281 390.394531 307.121094 393.816406 Z M 323.105469 404.351562 L 327.089844 419.238281 C 330.8125 417.246094 332.390625 414.011719 331.820312 409.527344 C 331.695312 409.351562 331.257812 403.894531 323.105469 404.351562 Z M 323.105469 404.351562 " fill-opacity="1" fill-rule="nonzero"/><path fill="#3d3936" d="M 76.28125 438.078125 C 76.019531 437.695312 76.117188 437.171875 76.5 436.910156 L 87.90625 429.097656 C 88.289062 428.835938 88.808594 428.933594 89.074219 429.316406 C 89.335938 429.699219 89.238281 430.222656 88.855469 430.484375 L 77.449219 438.296875 C 77.070312 438.554688 76.546875 438.464844 76.28125 438.078125 Z M 76.28125 438.078125 " fill-opacity="1" fill-rule="nonzero"/><path fill="#3d3936" d="M 85.664062 442.421875 C 85.226562 442.273438 84.988281 441.796875 85.136719 441.355469 L 87.011719 435.824219 C 87.160156 435.382812 87.640625 435.148438 88.078125 435.296875 C 88.515625 435.445312 88.753906 435.925781 88.605469 436.363281 L 86.730469 441.898438 C 86.578125 442.339844 86.101562 442.570312 85.664062 442.421875 Z M 85.664062 442.421875 " fill-opacity="1" fill-rule="nonzero"/><path fill="#ffffff" d="M 520.636719 560.039062 C 520.636719 573.878906 503.039062 585.109375 481.332031 585.109375 C 459.609375 585.109375 442.007812 573.878906 442.007812 560.039062 C 442.007812 546.21875 459.609375 534.988281 481.332031 534.988281 C 503.039062 534.988281 520.636719 546.21875 520.636719 560.039062 Z M 520.636719 560.039062 " fill-opacity="1" fill-rule="nonzero"/><path fill="#3d3936" d="M 669.550781 491.300781 L 657.703125 430.96875 C 657.617188 430.511719 657.914062 430.070312 658.367188 429.980469 C 658.816406 429.890625 659.265625 430.191406 659.355469 430.644531 L 671.203125 490.976562 C 671.292969 491.433594 670.992188 491.875 670.539062 491.964844 C 670.089844 492.054688 669.644531 491.761719 669.550781 491.300781 Z M 669.550781 491.300781 " fill-opacity="1" fill-rule="nonzero"/><path fill="#3d3936" d="M 765.460938 596.082031 C 765.445312 596.082031 765.429688 596.078125 765.414062 596.078125 C 764.953125 596.054688 764.59375 595.660156 764.617188 595.195312 L 766.058594 567.621094 C 766.082031 567.160156 766.476562 566.792969 766.941406 566.828125 C 767.40625 566.851562 767.761719 567.246094 767.738281 567.710938 L 766.296875 595.285156 C 766.273438 595.730469 765.902344 596.082031 765.460938 596.082031 Z M 765.460938 596.082031 " fill-opacity="1" fill-rule="nonzero"/><path fill="#3d3936" d="M 799.367188 566.152344 C 799.285156 565.695312 799.59375 565.261719 800.046875 565.179688 C 800.503906 565.097656 800.941406 565.40625 801.023438 565.863281 C 801.183594 566.78125 805.339844 588.324219 833.828125 585.453125 C 834.304688 585.402344 834.703125 585.742188 834.746094 586.203125 C 834.792969 586.667969 834.457031 587.078125 833.996094 587.125 C 813.574219 589.183594 801.414062 577.894531 799.367188 566.152344 Z M 799.367188 566.152344 " fill-opacity="1" fill-rule="nonzero"/><path fill="#ffffff" d="M 135.691406 521.996094 L 187.941406 658.386719 C 191.265625 667.070312 199.597656 672.800781 208.890625 672.800781 L 429.492188 672.800781 C 435.664062 672.800781 439.921875 666.609375 437.710938 660.84375 L 385.464844 524.449219 C 382.136719 515.769531 373.804688 510.035156 364.511719 510.035156 L 143.910156 510.035156 C 137.738281 510.035156 133.480469 516.226562 135.691406 521.996094 Z M 135.691406 521.996094 " fill-opacity="1" fill-rule="nonzero"/><path fill="#dee8ff" d="M 426.023438 657.714844 L 426.023438 672.800781 L 208.890625 672.800781 C 199.597656 672.800781 191.265625 667.070312 187.941406 658.386719 L 187.683594 657.714844 Z M 426.023438 657.714844 " fill-opacity="0.8" fill-rule="nonzero"/><path fill="#3d3936" d="M 429.492188 673.640625 L 208.890625 673.640625 C 199.316406 673.640625 190.582031 667.632812 187.15625 658.6875 L 134.90625 522.296875 C 132.488281 515.980469 137.15625 509.195312 143.914062 509.195312 L 364.511719 509.195312 C 374.085938 509.195312 382.824219 515.207031 386.246094 524.148438 L 438.496094 660.542969 C 440.917969 666.855469 436.246094 673.640625 429.492188 673.640625 Z M 136.476562 521.695312 L 188.722656 658.085938 C 191.902344 666.386719 200.007812 671.960938 208.890625 671.960938 L 429.492188 671.960938 C 435.0625 671.960938 438.9375 666.386719 436.929688 661.144531 L 384.679688 524.75 C 381.5 516.453125 373.394531 510.878906 364.511719 510.878906 L 143.914062 510.878906 C 138.351562 510.878906 134.464844 516.441406 136.476562 521.695312 Z M 136.476562 521.695312 " fill-opacity="1" fill-rule="nonzero"/><path fill="#a3a3f5" d="M 349.769531 510.039062 C 359.058594 510.039062 367.386719 515.773438 370.71875 524.449219 L 422.964844 660.839844 C 425.179688 666.613281 420.921875 672.804688 414.746094 672.804688 L 561.527344 672.804688 L 561.527344 668.367188 C 561.527344 661.390625 555.871094 655.734375 548.898438 655.734375 L 435.753906 655.734375 L 385.464844 524.449219 C 382.136719 515.773438 373.804688 510.039062 364.515625 510.039062 Z M 349.769531 510.039062 " fill-opacity="1" fill-rule="nonzero"/><path fill="#8c8ced" d="M 349.769531 510.042969 C 359.0625 510.042969 367.386719 515.773438 370.710938 524.445312 L 422.96875 660.835938 C 425.179688 666.613281 420.917969 672.804688 414.746094 672.804688 L 421.574219 672.804688 C 427.746094 672.804688 432.007812 666.613281 429.792969 660.835938 L 377.554688 524.445312 C 374.214844 515.773438 365.886719 510.042969 356.597656 510.042969 Z M 349.769531 510.042969 " fill-opacity="1" fill-rule="nonzero"/><path fill="#3d3936" d="M 561.527344 673.644531 L 414.746094 673.644531 C 414.28125 673.644531 413.90625 673.269531 413.90625 672.804688 C 413.90625 672.339844 414.28125 671.964844 414.746094 671.964844 C 420.34375 671.964844 424.183594 666.371094 422.179688 661.140625 L 369.933594 524.75 C 366.75 516.453125 358.644531 510.878906 349.769531 510.878906 C 349.304688 510.878906 348.929688 510.503906 348.929688 510.039062 C 348.929688 509.578125 349.304688 509.199219 349.769531 509.199219 L 364.515625 509.199219 C 374.085938 509.199219 382.820312 515.207031 386.25 524.148438 L 436.332031 654.894531 L 548.898438 654.894531 C 556.324219 654.894531 562.367188 660.941406 562.367188 668.367188 L 562.367188 672.804688 C 562.367188 673.269531 561.992188 673.644531 561.527344 673.644531 Z M 420.1875 671.964844 L 560.6875 671.964844 L 560.6875 668.367188 C 560.6875 661.867188 555.398438 656.578125 548.898438 656.578125 L 435.753906 656.578125 C 435.40625 656.578125 435.09375 656.363281 434.96875 656.035156 L 384.679688 524.75 C 381.496094 516.453125 373.394531 510.878906 364.515625 510.878906 L 358.394531 510.878906 C 364.296875 513.261719 369.148438 518.015625 371.503906 524.148438 L 423.746094 660.539062 C 425.359375 664.742188 423.847656 669.460938 420.1875 671.964844 Z M 420.1875 671.964844 " fill-opacity="1" fill-rule="nonzero"/><path fill="#ffffff" d="M 519.808594 662.703125 L 539.789062 662.703125 C 541.128906 662.703125 542.21875 663.792969 542.21875 665.136719 C 542.21875 666.476562 541.128906 667.566406 539.789062 667.566406 L 519.808594 667.566406 C 518.464844 667.566406 517.378906 666.476562 517.378906 665.136719 C 517.378906 663.792969 518.464844 662.703125 519.808594 662.703125 Z M 519.808594 662.703125 " fill-opacity="1" fill-rule="nonzero"/><path fill="#ffffff" d="M 508.601562 665.136719 C 508.601562 666.476562 507.511719 667.566406 506.171875 667.566406 L 501.609375 667.566406 C 500.269531 667.566406 499.179688 666.476562 499.179688 665.136719 C 499.179688 663.792969 500.269531 662.703125 501.609375 662.703125 L 506.171875 662.703125 C 507.511719 662.703125 508.601562 663.792969 508.601562 665.136719 Z M 508.601562 665.136719 " fill-opacity="1" fill-rule="nonzero"/><path fill="#a3a3f5" d="M 253.839844 591.40625 C 257.425781 601.363281 268.480469 609.4375 278.523438 609.4375 C 288.542969 609.4375 293.777344 601.363281 290.1875 591.40625 C 286.605469 581.472656 275.554688 573.402344 265.53125 573.402344 C 255.488281 573.402344 250.257812 581.472656 253.839844 591.40625 Z M 253.839844 591.40625 " fill-opacity="1" fill-rule="nonzero"/><path fill="#8c8ced" d="M 253.835938 591.402344 C 257.429688 601.363281 268.484375 609.441406 278.519531 609.441406 C 284.558594 609.441406 288.847656 606.515625 290.523438 602 C 276.917969 611.460938 251.765625 590.957031 257.515625 575.695312 C 253.050781 578.738281 251.402344 584.644531 253.835938 591.402344 Z M 253.835938 591.402344 " fill-opacity="1" fill-rule="nonzero"/><path fill="#3d3936" d="M 278.523438 610.277344 C 268.167969 610.277344 256.742188 601.941406 253.046875 591.691406 C 249.210938 581.050781 255.054688 572.5625 265.53125 572.5625 C 275.871094 572.5625 287.289062 580.886719 290.976562 591.121094 C 294.882812 601.957031 288.792969 610.277344 278.523438 610.277344 Z M 265.53125 574.242188 C 256.296875 574.242188 251.167969 581.515625 254.628906 591.121094 C 258.101562 600.757812 268.820312 608.597656 278.523438 608.597656 C 287.875 608.597656 292.824219 601.199219 289.398438 591.691406 C 285.929688 582.070312 275.222656 574.242188 265.53125 574.242188 Z M 265.53125 574.242188 " fill-opacity="1" fill-rule="nonzero"/><path fill="#ffc67b" d="M 597.824219 77.84375 C 597.824219 105.160156 583.074219 129.0625 561.113281 141.96875 C 551.925781 147.371094 546.480469 157.421875 546.480469 168.082031 L 500.507812 168.082031 C 500.507812 157.472656 495.152344 147.394531 485.996094 142.035156 C 463.070312 128.621094 447.996094 103.292969 449.234375 74.5625 C 450.851562 36.914062 481.210938 5.902344 518.808594 3.585938 C 561.992188 0.925781 597.824219 35.191406 597.824219 77.84375 Z M 597.824219 77.84375 " fill-opacity="1" fill-rule="nonzero"/><path fill="#3d3936" d="M 500.507812 168.925781 C 500.042969 168.925781 499.667969 168.546875 499.667969 168.082031 C 499.667969 157.554688 494.265625 147.851562 485.570312 142.761719 C 461.433594 128.636719 447.191406 102.492188 448.394531 74.523438 C 450.023438 36.605469 480.933594 5.074219 518.757812 2.746094 C 562.308594 0.0742188 598.664062 34.488281 598.664062 77.847656 C 598.664062 104.386719 584.4375 129.234375 561.539062 142.695312 C 552.769531 147.851562 547.320312 157.578125 547.320312 168.082031 C 547.320312 168.546875 546.945312 168.921875 546.480469 168.921875 Z M 501.335938 167.242188 L 545.648438 167.242188 C 545.933594 156.46875 551.640625 146.5625 560.6875 141.246094 C 583.078125 128.085938 596.984375 103.792969 596.984375 77.847656 C 596.984375 35.511719 561.503906 1.800781 518.859375 4.425781 C 481.882812 6.703125 451.667969 37.523438 450.070312 74.597656 C 448.894531 101.9375 462.824219 127.503906 486.417969 141.308594 C 495.394531 146.5625 501.058594 156.441406 501.335938 167.242188 Z M 501.335938 167.242188 " fill-opacity="1" fill-rule="nonzero"/><path fill="#ffffff" d="M 559.117188 176.941406 C 559.117188 181.835938 555.152344 185.800781 550.261719 185.800781 L 496.730469 185.800781 C 491.839844 185.800781 487.875 181.835938 487.875 176.941406 C 487.875 172.050781 491.839844 168.082031 496.730469 168.082031 L 550.261719 168.082031 C 555.152344 168.082031 559.117188 172.050781 559.117188 176.941406 Z M 559.117188 176.941406 " fill-opacity="1" fill-rule="nonzero"/><path fill="#3d3936" d="M 550.261719 186.640625 L 496.730469 186.640625 C 491.382812 186.640625 487.035156 182.289062 487.035156 176.941406 C 487.035156 171.59375 491.382812 167.242188 496.730469 167.242188 L 550.261719 167.242188 C 555.605469 167.242188 559.957031 171.59375 559.957031 176.941406 C 559.957031 182.289062 555.605469 186.640625 550.261719 186.640625 Z M 496.730469 168.925781 C 492.308594 168.925781 488.714844 172.519531 488.714844 176.941406 C 488.714844 181.363281 492.308594 184.960938 496.730469 184.960938 L 550.261719 184.960938 C 554.679688 184.960938 558.277344 181.363281 558.277344 176.941406 C 558.277344 172.519531 554.679688 168.925781 550.261719 168.925781 Z M 496.730469 168.925781 " fill-opacity="1" fill-rule="nonzero"/><path fill="#ffffff" d="M 559.117188 194.660156 C 559.117188 199.550781 555.152344 203.515625 550.261719 203.515625 L 496.730469 203.515625 C 491.839844 203.515625 487.875 199.550781 487.875 194.660156 C 487.875 189.765625 491.839844 185.800781 496.730469 185.800781 L 550.261719 185.800781 C 555.152344 185.800781 559.117188 189.765625 559.117188 194.660156 Z M 559.117188 194.660156 " fill-opacity="1" fill-rule="nonzero"/><path fill="#3d3936" d="M 550.261719 204.359375 L 496.730469 204.359375 C 491.382812 204.359375 487.035156 200.007812 487.035156 194.660156 C 487.035156 189.3125 491.382812 184.960938 496.730469 184.960938 L 550.261719 184.960938 C 555.605469 184.960938 559.957031 189.3125 559.957031 194.660156 C 559.957031 200.007812 555.605469 204.359375 550.261719 204.359375 Z M 496.730469 186.640625 C 492.308594 186.640625 488.714844 190.238281 488.714844 194.660156 C 488.714844 199.082031 492.308594 202.675781 496.730469 202.675781 L 550.261719 202.675781 C 554.679688 202.675781 558.277344 199.082031 558.277344 194.660156 C 558.277344 190.238281 554.679688 186.640625 550.261719 186.640625 Z M 496.730469 186.640625 " fill-opacity="1" fill-rule="nonzero"/><path fill="#ffffff" d="M 540.699219 203.515625 L 536.796875 211.785156 C 536.074219 213.3125 534.539062 214.285156 532.847656 214.285156 L 514.277344 214.285156 C 512.585938 214.285156 511.050781 213.3125 510.328125 211.785156 L 506.425781 203.515625 Z M 540.699219 203.515625 " fill-opacity="1" fill-rule="nonzero"/><path fill="#3d3936" d="M 532.847656 215.128906 L 514.277344 215.128906 C 512.273438 215.128906 510.425781 213.957031 509.570312 212.140625 L 505.664062 203.875 C 505.402344 203.320312 505.808594 202.675781 506.425781 202.675781 L 540.699219 202.675781 C 541.3125 202.675781 541.722656 203.316406 541.460938 203.875 L 537.558594 212.140625 C 536.699219 213.957031 534.851562 215.128906 532.847656 215.128906 Z M 507.75 204.359375 L 511.089844 211.425781 C 511.667969 212.652344 512.917969 213.445312 514.277344 213.445312 L 532.847656 213.445312 C 534.207031 213.445312 535.457031 212.652344 536.039062 211.425781 L 539.375 204.359375 Z M 507.75 204.359375 " fill-opacity="1" fill-rule="nonzero"/><path fill="#ffffff" d="M 491.984375 70.566406 L 478.632812 70.566406 C 476.054688 70.566406 473.957031 68.46875 473.957031 65.890625 L 473.957031 52.546875 C 473.957031 49.96875 476.054688 47.867188 478.632812 47.867188 L 491.984375 47.867188 C 494.5625 47.867188 496.660156 49.96875 496.660156 52.546875 L 496.660156 65.890625 C 496.660156 68.46875 494.5625 70.566406 491.984375 70.566406 Z M 478.632812 49.550781 C 476.980469 49.550781 475.636719 50.894531 475.636719 52.546875 L 475.636719 65.890625 C 475.636719 67.542969 476.980469 68.886719 478.632812 68.886719 L 491.984375 68.886719 C 493.636719 68.886719 494.980469 67.542969 494.980469 65.890625 L 494.980469 52.546875 C 494.980469 50.894531 493.636719 49.550781 491.984375 49.550781 Z M 478.632812 49.550781 " fill-opacity="1" fill-rule="nonzero"/><path fill="#ffffff" d="M 568.554688 55.445312 L 515.988281 55.445312 C 515.523438 55.445312 515.148438 55.066406 515.148438 54.605469 C 515.148438 54.140625 515.523438 53.761719 515.988281 53.761719 L 568.554688 53.761719 C 569.019531 53.761719 569.394531 54.140625 569.394531 54.605469 C 569.394531 55.066406 569.019531 55.445312 568.554688 55.445312 Z M 568.554688 55.445312 " fill-opacity="1" fill-rule="nonzero"/><path fill="#ffffff" d="M 543.300781 64.671875 L 515.988281 64.671875 C 515.523438 64.671875 515.148438 64.296875 515.148438 63.832031 C 515.148438 63.367188 515.523438 62.992188 515.988281 62.992188 L 543.300781 62.992188 C 543.765625 62.992188 544.140625 63.367188 544.140625 63.832031 C 544.140625 64.296875 543.765625 64.671875 543.300781 64.671875 Z M 543.300781 64.671875 " fill-opacity="1" fill-rule="nonzero"/><path fill="#ffffff" d="M 483.226562 62.582031 L 480.101562 59.144531 C 479.789062 58.800781 479.816406 58.269531 480.15625 57.957031 C 480.5 57.648438 481.035156 57.671875 481.34375 58.015625 L 483.898438 60.824219 L 489.324219 55.800781 C 489.664062 55.484375 490.199219 55.503906 490.511719 55.847656 C 490.828125 56.1875 490.808594 56.71875 490.464844 57.035156 L 484.417969 62.632812 C 484.078125 62.953125 483.542969 62.929688 483.226562 62.582031 Z M 483.226562 62.582031 " fill-opacity="1" fill-rule="nonzero"/><path fill="#ffffff" d="M 495.820312 86.171875 L 495.820312 99.515625 C 495.820312 101.636719 494.101562 103.351562 491.984375 103.351562 L 478.632812 103.351562 C 476.515625 103.351562 474.796875 101.636719 474.796875 99.515625 L 474.796875 86.171875 C 474.796875 84.054688 476.515625 82.335938 478.632812 82.335938 L 491.984375 82.335938 C 494.101562 82.335938 495.820312 84.054688 495.820312 86.171875 Z M 495.820312 86.171875 " fill-opacity="1" fill-rule="nonzero"/><path fill="#ffffff" d="M 568.554688 89.070312 L 515.988281 89.070312 C 515.523438 89.070312 515.148438 88.695312 515.148438 88.230469 C 515.148438 87.765625 515.523438 87.390625 515.988281 87.390625 L 568.554688 87.390625 C 569.019531 87.390625 569.394531 87.765625 569.394531 88.230469 C 569.394531 88.695312 569.019531 89.070312 568.554688 89.070312 Z M 568.554688 89.070312 " fill-opacity="1" fill-rule="nonzero"/><path fill="#ffffff" d="M 543.300781 98.300781 L 515.988281 98.300781 C 515.523438 98.300781 515.148438 97.921875 515.148438 97.457031 C 515.148438 96.996094 515.523438 96.617188 515.988281 96.617188 L 543.300781 96.617188 C 543.765625 96.617188 544.140625 96.996094 544.140625 97.457031 C 544.140625 97.921875 543.765625 98.300781 543.300781 98.300781 Z M 543.300781 98.300781 " fill-opacity="1" fill-rule="nonzero"/><path fill="#3d3936" d="M 483.226562 96.210938 L 480.101562 92.773438 C 479.789062 92.429688 479.816406 91.898438 480.15625 91.585938 C 480.5 91.273438 481.035156 91.296875 481.34375 91.640625 L 483.898438 94.453125 L 489.324219 89.429688 C 489.664062 89.113281 490.199219 89.132812 490.511719 89.472656 C 490.828125 89.816406 490.808594 90.347656 490.464844 90.660156 L 484.417969 96.261719 C 484.078125 96.578125 483.542969 96.554688 483.226562 96.210938 Z M 483.226562 96.210938 " fill-opacity="1" fill-rule="nonzero"/><path fill="#ffffff" d="M 550.703125 323.210938 L 543.996094 315.121094 C 542.8125 313.691406 543.011719 311.574219 544.441406 310.390625 C 545.867188 309.207031 547.988281 309.402344 549.171875 310.832031 L 553.683594 316.273438 L 566.671875 305.007812 C 568.078125 303.789062 570.199219 303.941406 571.414062 305.34375 C 572.628906 306.746094 572.476562 308.867188 571.078125 310.085938 L 555.492188 323.605469 C 554.058594 324.847656 551.898438 324.65625 550.703125 323.210938 Z M 550.703125 323.210938 " fill-opacity="1" fill-rule="nonzero"/><path fill="#ffffff" d="M 348.074219 171.898438 C 348.074219 176.199219 344.589844 179.683594 340.289062 179.683594 C 335.988281 179.683594 332.503906 176.199219 332.503906 171.898438 C 332.503906 167.597656 335.988281 164.113281 340.289062 164.113281 C 344.589844 164.113281 348.074219 167.597656 348.074219 171.898438 Z M 348.074219 171.898438 " fill-opacity="1" fill-rule="nonzero"/><path fill="#ffffff" d="M 322.066406 171.898438 C 322.066406 176.199219 318.582031 179.683594 314.28125 179.683594 C 309.984375 179.683594 306.5 176.199219 306.5 171.898438 C 306.5 167.597656 309.984375 164.113281 314.28125 164.113281 C 318.582031 164.113281 322.066406 167.597656 322.066406 171.898438 Z M 322.066406 171.898438 " fill-opacity="1" fill-rule="nonzero"/><path fill="#ffffff" d="M 296.0625 171.898438 C 296.0625 176.199219 292.578125 179.683594 288.277344 179.683594 C 283.976562 179.683594 280.492188 176.199219 280.492188 171.898438 C 280.492188 167.597656 283.976562 164.113281 288.277344 164.113281 C 292.578125 164.113281 296.0625 167.597656 296.0625 171.898438 Z M 296.0625 171.898438 " fill-opacity="1" fill-rule="nonzero"/><path fill="#1b130d" d="M 664.140625 499.621094 L 596.289062 472.4375 C 595.855469 472.265625 595.648438 471.777344 595.820312 471.347656 C 595.992188 470.914062 596.480469 470.707031 596.914062 470.878906 L 664.765625 498.058594 C 665.195312 498.230469 665.40625 498.722656 665.234375 499.152344 C 665.0625 499.582031 664.574219 499.792969 664.140625 499.621094 Z M 664.140625 499.621094 " fill-opacity="1" fill-rule="nonzero"/><path fill="#1b130d" d="M 787.886719 478.566406 L 716.933594 447.667969 C 716.507812 447.480469 716.3125 446.988281 716.496094 446.5625 C 716.683594 446.136719 717.175781 445.941406 717.605469 446.125 L 788.558594 477.027344 C 788.984375 477.210938 789.179688 477.707031 788.992188 478.132812 C 788.808594 478.558594 788.3125 478.753906 787.886719 478.566406 Z M 787.886719 478.566406 " fill-opacity="1" fill-rule="nonzero"/></svg>